# xmcd
#
# Track frame offsets: 
#        150
#        17482
#        28112
#        42932
#        58462
#        76677
#        90595
#        104490
#        124692
#        144477
#        163037
#        185377
#
# Disc length: 2683 seconds
#
# Revision: 2
# Processed by: cddbd v1.5.2PL0 Copyright (c) Steve Scherf et al.
# Submitted via: ExactAudioCopy v1.0b3
#
DISCID=980a790c
DTITLE=キャンディーズ - キャンディーズ1676日 Disc 4 SRCL-4871-5
DYEAR=2000
DGENRE=Pop
TTITLE0=ISABELLE
TTITLE1=LET IT SHINE
TTITLE2=SUGAR CANDY KISSES
TTITLE3=IT’S GONNA BE A COLD COLD CHRISTMAS(恋のラストシーン)
TTITLE4=ALL YOU GET FROM LOVE IS A LOVE SONG(ふたりのラヴ・ソング)
TTITLE5=SE PIANGI,SE RIDI(君に涙とほほえみを)
TTITLE6=DANCE,DANCE,DANCE (Intro Cut CD Edit Version)
TTITLE7=MIDNIGHT LOVE AFFAIR
TTITLE8=LOVE FEVER
TTITLE9=MUSCULIN SINGULIER(あなたの瞳に)
TTITLE10=STEEL WILLIE
TTITLE11=INSIDE A BROKEN DREAM(孤独の涙)
EXTD=
EXTT0=
EXTT1=
EXTT2=
EXTT3=
EXTT4=
EXTT5=
EXTT6=
EXTT7=
EXTT8=
EXTT9=
EXTT10=
EXTT11=
PLAYORDER=
